<mxfile host="65bd71144e">
    <diagram name="Freezer Temperature Energy Curve" id="freezer-energy">
        <mxGraphModel dx="434" dy="428" grid="1" gridSize="10" guides="1" tooltips="1" connect="1" arrows="1" fold="1" page="1" pageScale="1" pageWidth="1100" pageHeight="850" math="0" shadow="0">
            <root>
                <mxCell id="0"/>
                <mxCell id="1" parent="0"/>
                <mxCell id="2" value="&lt;font style=&quot;font-size: 24px;&quot;&gt;&lt;b&gt;ULT Freezer Temperature vs. Energy Consumption&lt;/b&gt;&lt;/font&gt;" style="text;html=1;strokeColor=none;fillColor=none;align=center;verticalAlign=middle;whiteSpace=wrap;rounded=0;fontColor=#00539B;fontFamily=Arial;" parent="1" vertex="1">
                    <mxGeometry x="270" y="20" width="560" height="30" as="geometry"/>
                </mxCell>
                <mxCell id="3" value="" style="rounded=0;whiteSpace=wrap;html=1;fillColor=#F5F5F5;strokeColor=#666666;shadow=1;" parent="1" vertex="1">
                    <mxGeometry x="150" y="120" width="600" height="400" as="geometry"/>
                </mxCell>
                <mxCell id="4" value="" style="endArrow=classic;html=1;rounded=0;exitX=0;exitY=1;exitDx=0;exitDy=0;entryX=1;entryY=1;entryDx=0;entryDy=0;strokeWidth=3;strokeColor=#000000;" parent="1" source="3" target="3" edge="1">
                    <mxGeometry width="50" height="50" relative="1" as="geometry">
                        <mxPoint x="520" y="370" as="sourcePoint"/>
                        <mxPoint x="570" y="320" as="targetPoint"/>
                    </mxGeometry>
                </mxCell>
                <mxCell id="5" value="" style="endArrow=classic;html=1;rounded=0;exitX=0;exitY=1;exitDx=0;exitDy=0;entryX=0;entryY=0;entryDx=0;entryDy=0;strokeWidth=3;strokeColor=#000000;" parent="1" source="3" target="3" edge="1">
                    <mxGeometry width="50" height="50" relative="1" as="geometry">
                        <mxPoint x="520" y="370" as="sourcePoint"/>
                        <mxPoint x="570" y="320" as="targetPoint"/>
                    </mxGeometry>
                </mxCell>
                <mxCell id="6" value="" style="endArrow=none;html=1;rounded=0;strokeWidth=1;strokeColor=#CCCCCC;dashed=1;" parent="1" edge="1">
                    <mxGeometry width="50" height="50" relative="1" as="geometry">
                        <mxPoint x="270" y="520" as="sourcePoint"/>
                        <mxPoint x="270" y="120" as="targetPoint"/>
                    </mxGeometry>
                </mxCell>
                <mxCell id="7" value="-60°C" style="text;html=1;strokeColor=none;fillColor=none;align=center;verticalAlign=middle;whiteSpace=wrap;rounded=0;fontFamily=Arial;" parent="1" vertex="1">
                    <mxGeometry x="250" y="530" width="40" height="20" as="geometry"/>
                </mxCell>
                <mxCell id="8" value="" style="endArrow=none;html=1;rounded=0;strokeWidth=1;strokeColor=#CCCCCC;dashed=1;" parent="1" edge="1">
                    <mxGeometry width="50" height="50" relative="1" as="geometry">
                        <mxPoint x="390" y="520" as="sourcePoint"/>
                        <mxPoint x="390" y="120" as="targetPoint"/>
                    </mxGeometry>
                </mxCell>
                <mxCell id="9" value="-70°C" style="text;html=1;strokeColor=#228B22;fillColor=#E8F5E9;align=center;verticalAlign=middle;whiteSpace=wrap;rounded=1;fontColor=#228B22;fontStyle=1;shadow=0;fontSize=12;" parent="1" vertex="1">
                    <mxGeometry x="370" y="530" width="40" height="20" as="geometry"/>
                </mxCell>
                <mxCell id="10" value="" style="endArrow=none;html=1;rounded=0;strokeWidth=1;strokeColor=#CCCCCC;dashed=1;" parent="1" edge="1">
                    <mxGeometry width="50" height="50" relative="1" as="geometry">
                        <mxPoint x="510" y="520" as="sourcePoint"/>
                        <mxPoint x="510" y="120" as="targetPoint"/>
                    </mxGeometry>
                </mxCell>
                <mxCell id="11" value="-80°C" style="text;html=1;strokeColor=#B22222;fillColor=#FFEBEE;align=center;verticalAlign=middle;whiteSpace=wrap;rounded=1;fontColor=#B22222;fontStyle=1;shadow=0;fontSize=12;" parent="1" vertex="1">
                    <mxGeometry x="490" y="530" width="40" height="20" as="geometry"/>
                </mxCell>
                <mxCell id="12" value="" style="endArrow=none;html=1;rounded=0;strokeWidth=1;strokeColor=#CCCCCC;dashed=1;" parent="1" edge="1">
                    <mxGeometry width="50" height="50" relative="1" as="geometry">
                        <mxPoint x="630" y="520" as="sourcePoint"/>
                        <mxPoint x="630" y="120" as="targetPoint"/>
                    </mxGeometry>
                </mxCell>
                <mxCell id="13" value="-90°C" style="text;html=1;strokeColor=none;fillColor=none;align=center;verticalAlign=middle;whiteSpace=wrap;rounded=0;fontFamily=Arial;" parent="1" vertex="1">
                    <mxGeometry x="610" y="530" width="40" height="20" as="geometry"/>
                </mxCell>
                <mxCell id="14" value="" style="endArrow=none;html=1;rounded=0;strokeWidth=1;strokeColor=#CCCCCC;dashed=1;" parent="1" edge="1">
                    <mxGeometry width="50" height="50" relative="1" as="geometry">
                        <mxPoint x="150" y="160" as="sourcePoint"/>
                        <mxPoint x="750" y="160" as="targetPoint"/>
                    </mxGeometry>
                </mxCell>
                <mxCell id="15" value="100%" style="text;html=1;strokeColor=none;fillColor=none;align=right;verticalAlign=middle;whiteSpace=wrap;rounded=0;" parent="1" vertex="1">
                    <mxGeometry x="90" y="150" width="50" height="20" as="geometry"/>
                </mxCell>
                <mxCell id="16" value="" style="endArrow=none;html=1;rounded=0;strokeWidth=1;strokeColor=#CCCCCC;dashed=1;" parent="1" edge="1">
                    <mxGeometry width="50" height="50" relative="1" as="geometry">
                        <mxPoint x="150" y="220" as="sourcePoint"/>
                        <mxPoint x="750" y="220" as="targetPoint"/>
                    </mxGeometry>
                </mxCell>
                <mxCell id="17" value="80%" style="text;html=1;strokeColor=none;fillColor=none;align=right;verticalAlign=middle;whiteSpace=wrap;rounded=0;" parent="1" vertex="1">
                    <mxGeometry x="90" y="210" width="50" height="20" as="geometry"/>
                </mxCell>
                <mxCell id="18" value="" style="endArrow=none;html=1;rounded=0;strokeWidth=1;strokeColor=#CCCCCC;dashed=1;" parent="1" edge="1">
                    <mxGeometry width="50" height="50" relative="1" as="geometry">
                        <mxPoint x="150" y="280" as="sourcePoint"/>
                        <mxPoint x="750" y="280" as="targetPoint"/>
                    </mxGeometry>
                </mxCell>
                <mxCell id="19" value="60%" style="text;html=1;strokeColor=none;fillColor=none;align=right;verticalAlign=middle;whiteSpace=wrap;rounded=0;" parent="1" vertex="1">
                    <mxGeometry x="90" y="270" width="50" height="20" as="geometry"/>
                </mxCell>
                <mxCell id="20" value="" style="endArrow=none;html=1;rounded=0;strokeWidth=1;strokeColor=#CCCCCC;dashed=1;" parent="1" edge="1">
                    <mxGeometry width="50" height="50" relative="1" as="geometry">
                        <mxPoint x="150" y="340" as="sourcePoint"/>
                        <mxPoint x="750" y="340" as="targetPoint"/>
                    </mxGeometry>
                </mxCell>
                <mxCell id="21" value="40%" style="text;html=1;strokeColor=none;fillColor=none;align=right;verticalAlign=middle;whiteSpace=wrap;rounded=0;" parent="1" vertex="1">
                    <mxGeometry x="90" y="330" width="50" height="20" as="geometry"/>
                </mxCell>
                <mxCell id="22" value="" style="endArrow=none;html=1;rounded=0;strokeWidth=1;strokeColor=#CCCCCC;dashed=1;" parent="1" edge="1">
                    <mxGeometry width="50" height="50" relative="1" as="geometry">
                        <mxPoint x="150" y="400" as="sourcePoint"/>
                        <mxPoint x="750" y="400" as="targetPoint"/>
                    </mxGeometry>
                </mxCell>
                <mxCell id="23" value="20%" style="text;html=1;strokeColor=none;fillColor=none;align=right;verticalAlign=middle;whiteSpace=wrap;rounded=0;" parent="1" vertex="1">
                    <mxGeometry x="90" y="390" width="50" height="20" as="geometry"/>
                </mxCell>
                <mxCell id="24" value="0%" style="text;html=1;strokeColor=none;fillColor=none;align=right;verticalAlign=middle;whiteSpace=wrap;rounded=0;" parent="1" vertex="1">
                    <mxGeometry x="90" y="510" width="50" height="20" as="geometry"/>
                </mxCell>
                <mxCell id="25" value="Freezer Temperature Setting" style="text;html=1;strokeColor=none;fillColor=none;align=center;verticalAlign=middle;whiteSpace=wrap;rounded=0;fontStyle=1;fontSize=14;fontColor=#00539B;" parent="1" vertex="1">
                    <mxGeometry x="350" y="560" width="200" height="20" as="geometry"/>
                </mxCell>
                <mxCell id="26" value="Energy Consumption (Relative %)" style="text;html=1;strokeColor=none;fillColor=none;align=center;verticalAlign=middle;whiteSpace=wrap;rounded=0;fontStyle=1;rotation=-90;fontSize=14;fontColor=#00539B;" parent="1" vertex="1">
                    <mxGeometry x="-10" y="310" width="200" height="20" as="geometry"/>
                </mxCell>
                <mxCell id="27" value="" style="curved=1;endArrow=none;html=1;rounded=0;strokeWidth=5;strokeColor=#00539B;endFill=0;shadow=0;" parent="1" edge="1">
                    <mxGeometry width="50" height="50" relative="1" as="geometry">
                        <mxPoint x="190" y="450" as="sourcePoint"/>
                        <mxPoint x="700" y="150" as="targetPoint"/>
                        <Array as="points">
                            <mxPoint x="270" y="400"/>
                            <mxPoint x="390" y="240"/>
                            <mxPoint x="510" y="160"/>
                        </Array>
                    </mxGeometry>
                </mxCell>
                <mxCell id="28" value="" style="ellipse;whiteSpace=wrap;html=1;aspect=fixed;fillColor=#228B22;strokeColor=#228B22;shadow=1;" parent="1" vertex="1">
                    <mxGeometry x="385" y="240" width="10" height="10" as="geometry"/>
                </mxCell>
                <mxCell id="29" value="At -70°C:&#10;Energy use = 65% of max" style="shape=callout;whiteSpace=wrap;html=1;perimeter=calloutPerimeter;position2=0.17;base=20;fillColor=#228B22;strokeColor=#228B22;fontColor=#FFFFFF;size=20;position=0.33;fontStyle=1;fontSize=12;shadow=1;glass=0;rounded=1;" parent="1" vertex="1">
                    <mxGeometry x="360" y="170" width="130" height="70" as="geometry"/>
                </mxCell>
                <mxCell id="30" value="" style="ellipse;whiteSpace=wrap;html=1;aspect=fixed;fillColor=#B22222;strokeColor=#B22222;shadow=1;" parent="1" vertex="1">
                    <mxGeometry x="505" y="160" width="10" height="10" as="geometry"/>
                </mxCell>
                <mxCell id="31" value="At -80°C:&#10;Energy use = 100% of max" style="shape=callout;whiteSpace=wrap;html=1;perimeter=calloutPerimeter;position2=0.58;base=20;fillColor=#B22222;strokeColor=#B22222;fontColor=#FFFFFF;size=20;position=0.58;fontStyle=1;fontSize=12;shadow=1;glass=0;rounded=1;" parent="1" vertex="1">
                    <mxGeometry x="525" y="100" width="155" height="60" as="geometry"/>
                </mxCell>
                <mxCell id="32" value="" style="shape=curlyBracket;whiteSpace=wrap;html=1;rounded=1;flipH=1;labelPosition=right;verticalLabelPosition=middle;align=left;verticalAlign=middle;rotation=-90;size=0.5;strokeWidth=3;strokeColor=#228B22;" parent="1" vertex="1">
                    <mxGeometry x="452.5" y="295" width="20" height="115" as="geometry"/>
                </mxCell>
                <mxCell id="33" value="35% Energy Savings" style="text;html=1;strokeColor=#228B22;fillColor=#E8F5E9;align=center;verticalAlign=middle;whiteSpace=wrap;rounded=1;fontColor=#228B22;fontStyle=1;fontSize=14;shadow=1;glass=0;" parent="1" vertex="1">
                    <mxGeometry x="405" y="365" width="120" height="35" as="geometry"/>
                </mxCell>
                <mxCell id="34" value="&lt;b&gt;Sample Integrity at -70°C vs -80°C&lt;/b&gt;" style="swimlane;fontStyle=0;childLayout=stackLayout;horizontal=1;startSize=30;horizontalStack=0;resizeParent=1;resizeParentMax=0;resizeLast=0;collapsible=1;marginBottom=0;whiteSpace=wrap;html=1;fillColor=#00539B;fontColor=#FFFFFF;shadow=1;strokeWidth=1;rounded=1;glass=0;" parent="1" vertex="1">
                    <mxGeometry x="780" y="220" width="230" height="150" as="geometry"/>
                </mxCell>
                <mxCell id="35" value="✓ DNA/RNA stability maintained" style="text;strokeColor=none;fillColor=#E3F2FD;align=left;verticalAlign=middle;spacingLeft=4;spacingRight=4;overflow=hidden;points=[[0,0.5],[1,0.5]];portConstraint=eastwest;rotatable=0;whiteSpace=wrap;html=1;fontStyle=1;" parent="34" vertex="1">
                    <mxGeometry y="30" width="230" height="30" as="geometry"/>
                </mxCell>
                <mxCell id="36" value="✓ Protein degradation minimal" style="text;strokeColor=none;fillColor=#FFFFFF;align=left;verticalAlign=middle;spacingLeft=4;spacingRight=4;overflow=hidden;points=[[0,0.5],[1,0.5]];portConstraint=eastwest;rotatable=0;whiteSpace=wrap;html=1;fontStyle=1;" parent="34" vertex="1">
                    <mxGeometry y="60" width="230" height="30" as="geometry"/>
                </mxCell>
                <mxCell id="37" value="✓ No impact on downstream analyses" style="text;strokeColor=none;fillColor=#E3F2FD;align=left;verticalAlign=middle;spacingLeft=4;spacingRight=4;overflow=hidden;points=[[0,0.5],[1,0.5]];portConstraint=eastwest;rotatable=0;whiteSpace=wrap;html=1;fontStyle=1;" parent="34" vertex="1">
                    <mxGeometry y="90" width="230" height="30" as="geometry"/>
                </mxCell>
                <mxCell id="38" value="✓ Multiple studies confirm equivalence" style="text;strokeColor=none;fillColor=#FFFFFF;align=left;verticalAlign=middle;spacingLeft=4;spacingRight=4;overflow=hidden;points=[[0,0.5],[1,0.5]];portConstraint=eastwest;rotatable=0;whiteSpace=wrap;html=1;fontStyle=1;" parent="34" vertex="1">
                    <mxGeometry y="120" width="230" height="30" as="geometry"/>
                </mxCell>
                <mxCell id="39" value="" style="shape=image;html=1;verticalAlign=top;verticalLabelPosition=bottom;labelBackgroundColor=#ffffff;imageAspect=0;aspect=fixed;image=data:image/svg+xml,PHN2ZyB4bWxucz0iaHR0cDovL3d3dy53My5vcmcvMjAwMC9zdmciIHdpZHRoPSI4MCIgaGVpZ2h0PSIxMjAiIHZpZXdCb3g9IjAgMCA4MCAxMjAiPjxyZWN0IHg9IjEwIiB5PSIxMCIgd2lkdGg9IjYwIiBoZWlnaHQ9IjEwMCIgcng9IjUiIHJ5PSI1IiBmaWxsPSIjZTBlMGUwIiBzdHJva2U9IiMwMDUzOUIiIHN0cm9rZS13aWR0aD0iMiIvPjxyZWN0IHg9IjE1IiB5PSIyMCIgd2lkdGg9IjUwIiBoZWlnaHQ9IjEwIiBmaWxsPSIjZmZmZmZmIiBzdHJva2U9IiM2NjY2NjYiLz48cmVjdCB4PSIxNSIgeT0iNDAiIHdpZHRoPSI1MCIgaGVpZ2h0PSIxMCIgZmlsbD0iI2ZmZmZmZiIgc3Ryb2tlPSIjNjY2NjY2Ii8+PHJlY3QgeD0iMTUiIHk9IjYwIiB3aWR0aD0iNTAiIGhlaWdodD0iMTAiIGZpbGw9IiNmZmZmZmYiIHN0cm9rZT0iIzY2NjY2NiIvPjxyZWN0IHg9IjE1IiB5PSI4MCIgd2lkdGg9IjUwIiBoZWlnaHQ9IjEwIiBmaWxsPSIjZmZmZmZmIiBzdHJva2U9IiM2NjY2NjYiLz48Y2lyY2xlIGN4PSI0MCIgeT0iMTUiIHI9IjMiIGZpbGw9IiMwMDUzOUIiLz48dGV4dCB4PSIzNSIgeT0iMTAwIiBmb250LWZhbWlseT0iQXJpYWwiIGZvbnQtc2l6ZT0iOCIgZmlsbD0iIzAwMDAwMCI+LTcwwrBDPC90ZXh0Pjwvc3ZnPg==" parent="1" vertex="1">
                    <mxGeometry x="780" y="385" width="80" height="120" as="geometry"/>
                </mxCell>
                <mxCell id="40" value="Annual Energy Cost per Freezer" style="swimlane;whiteSpace=wrap;html=1;fillColor=#E1F5FE;strokeColor=#00539B;fontStyle=1;startSize=30;shadow=1;swimlaneFillColor=#FFFFFF;rounded=1;" parent="1" vertex="1">
                    <mxGeometry x="880" y="385" width="130" height="120" as="geometry"/>
                </mxCell>
                <mxCell id="41" value="-80°C: $1,500/year" style="text;html=1;strokeColor=none;fillColor=none;align=left;verticalAlign=middle;whiteSpace=wrap;rounded=0;fontColor=#B22222;fontStyle=1;spacingLeft=8;" parent="40" vertex="1">
                    <mxGeometry y="30" width="130" height="30" as="geometry"/>
                </mxCell>
                <mxCell id="42" value="-70°C: $975/year" style="text;html=1;strokeColor=none;fillColor=none;align=left;verticalAlign=middle;whiteSpace=wrap;rounded=0;fontColor=#228B22;fontStyle=1;spacingLeft=8;" parent="40" vertex="1">
                    <mxGeometry y="60" width="130" height="30" as="geometry"/>
                </mxCell>
                <mxCell id="43" value="Savings: $525/year" style="text;html=1;strokeColor=none;fillColor=#E8F5E9;align=left;verticalAlign=middle;whiteSpace=wrap;rounded=1;fontStyle=1;fontColor=#000000;spacingLeft=8;" parent="40" vertex="1">
                    <mxGeometry y="90" width="130" height="30" as="geometry"/>
                </mxCell>
                <mxCell id="44" value="Source: Royal Society of Chemistry: Sustainable Laboratories Report" style="text;html=1;strokeColor=none;fillColor=none;align=right;verticalAlign=middle;whiteSpace=wrap;rounded=0;fontColor=#666666;fontSize=11;fontStyle=2;" parent="1" vertex="1">
                    <mxGeometry x="440" y="590" width="370" height="20" as="geometry"/>
                </mxCell>
            </root>
        </mxGraphModel>
    </diagram>
</mxfile>